<?xml version="1.0"?>
<svg xmlns="http://www.w3.org/2000/svg" xmlns:xlink="http://www.w3.org/1999/xlink" version="1.1" id="Capa_1" x="0px" y="0px" viewBox="0 0 512 512" style="enable-background:new 0 0 512 512;" xml:space="preserve" width="512px" height="512px" class=""><g><circle style="fill:#FFFFFF" cx="256" cy="256" r="246.34" data-original="#FF7575" class="" data-old_color="#ffffff"/><g style="opacity:0.25;">
	<path style="fill:#B0B4B7" d="M381.585,305.461c-0.811-0.005-1.623,0.097-2.415,0.29c-20.523,5.255-41.607,8.047-62.792,8.308   c-20.596,0.565-41.047-3.579-59.798-12.124c-18.794-8.564-39.298-12.713-59.943-12.124c-23.262,0.241-46.399,3.487-68.83,9.66   c-4.685,1.266-7.704,5.816-7.052,10.626c2.657,23.475,22.509,110.128,104.67,110.128c11.404-0.116,22.755-1.589,33.811-4.395   c109.162-26.711,126.406-67.623,131.671-99.019c0.937-5.25-2.565-10.269-7.82-11.201   C382.59,305.519,382.087,305.471,381.585,305.461z" data-original="#171C1F" class="active-path" data-old_color="#9FA7AC"/>
</g><path style="fill:#FFFFFF" d="M169.057,241.509c19.683-0.01,37.753-10.902,46.949-28.305l-71.777-71.777  c-25.928,13.737-35.811,45.896-22.074,71.825C131.357,230.622,149.398,241.49,169.057,241.509z M342.943,241.509  c29.343-0.024,53.113-23.837,53.084-53.18c-0.019-19.659-10.887-37.7-28.257-46.901l-71.777,71.777  C305.191,230.608,323.26,241.5,342.943,241.509z M386.029,301.162c-0.85,0.01-1.691,0.121-2.512,0.338  c-21.296,5.458-43.172,8.342-65.159,8.598c-21.33,0.57-42.51-3.743-61.923-12.607c-19.417-8.83-40.598-13.109-61.923-12.51  c-24.103,0.29-48.065,3.7-71.294,10.143c-4.763,1.323-7.854,5.912-7.294,10.82c1.063,9.66-1.642,9.274,7.438,29.271  c6.859-3.429,27.918-9.66,37.289-7.535c5.362,1.352,16.616,26.518,20.045,25.02c3.429-1.497,7.39-30.527,15.022-30.044  c7.632,0.483,61.247,0.628,92.74,20.045c9.66,6.859,5.845,26.469,15.36,28.015s11.158-22.509,28.981-23.765  c13.138-0.918,24.489-2.946,36.082-3.961c17.002-5.458,22.122,4.299,27.146-30.14c0.879-5.506-2.869-10.684-8.376-11.563  C387.115,301.201,386.574,301.162,386.029,301.162z" data-original="#FFFFFF" class=""/><path style="fill:#70CBF6" d="M140.075,188.377c0.048,16.007,13.066,28.942,29.068,28.894c13.573-0.043,25.301-9.501,28.218-22.76  l-34.439-34.439C149.596,162.956,140.085,174.742,140.075,188.377z M169.057,178.717c0,5.337-4.323,9.66-9.66,9.66  s-9.66-4.323-9.66-9.66s4.323-9.66,9.66-9.66S169.057,173.38,169.057,178.717z M349.078,160.072l-10.53,10.53  c4.507,2.855,5.845,8.825,2.985,13.331c-2.855,4.507-8.825,5.845-13.331,2.985c-1.203-0.763-2.222-1.782-2.985-2.985l-10.53,10.53  c3.376,15.645,18.794,25.595,34.439,22.219c15.645-3.376,25.595-18.794,22.219-34.439c-2.401-11.129-11.09-19.823-22.219-22.219  L349.078,160.072z" data-original="#70CBF6" class=""/><path style="fill:#B0B4B7" d="M169.057,246.34c20.939-0.029,40.235-11.346,50.475-29.609l8.888,8.888  c1.734,2.024,4.787,2.261,6.811,0.526c2.024-1.734,2.261-4.787,0.527-6.811c-0.164-0.188-0.338-0.367-0.527-0.527l-96.604-96.604  c-2.024-1.734-5.077-1.497-6.811,0.526c-1.55,1.806-1.55,4.478,0,6.284l8.888,8.888c-27.875,15.737-37.719,51.094-21.982,78.969  C128.976,235.037,148.2,246.291,169.057,246.34z M147.9,144.906l64.628,64.628c-11.737,23.953-40.675,33.86-64.628,22.122  c-23.953-11.737-33.86-40.675-22.122-64.628C130.492,157.401,138.279,149.62,147.9,144.906z M280.151,227.019  c1.285,0.01,2.517-0.498,3.429-1.401l8.888-8.888c15.563,27.976,50.852,38.038,78.829,22.48  c27.976-15.563,38.038-50.852,22.48-78.829c-5.25-9.443-13.037-17.229-22.48-22.48l8.888-8.888c1.734-2.024,1.497-5.077-0.526-6.811  c-1.806-1.55-4.478-1.55-6.284,0l-96.604,96.604c-1.869,1.903-1.835,4.961,0.068,6.83C277.721,226.507,278.91,227,280.151,227.019z   M364.1,144.906c23.953,11.737,33.86,40.675,22.122,64.628s-40.675,33.86-64.628,22.122c-9.622-4.714-17.408-12.496-22.122-22.122  L364.1,144.906z M381.585,295.752c-1.628-0.005-3.251,0.188-4.83,0.58c-19.813,5.086-40.168,7.762-60.619,7.97  c-19.041,0.599-37.96-3.188-55.306-11.061c-20.084-9.255-42.042-13.732-64.145-13.09c-24.04,0.295-47.94,3.705-71.1,10.143  c-9.366,2.357-15.553,11.269-14.491,20.866c3.169,24.117,11.399,47.292,24.151,68.009c20.915,33.232,52.166,50.717,90.228,50.717  c12.259-0.15,24.45-1.773,36.323-4.83c111.771-27.194,132.878-71.342,138.82-106.747c0.869-5.632-0.792-11.356-4.54-15.65  C392.477,298.366,387.188,295.844,381.585,295.752z M259.478,415.831c-11.056,2.811-22.407,4.284-33.811,4.395  c-61.44,0-88.103-48.302-98.729-82.596c5.796-1.352,16.761-3.381,31.493-5.796c2.183,2.946,4.12,6.062,5.796,9.322  c5.12,8.888,9.226,15.94,15.408,15.312c6.183-0.628,8.066-7.873,10.82-17.195c1.005-3.714,2.333-7.332,3.961-10.82  c19.355-0.333,38.603,2.942,56.755,9.66c9.115,3.125,18.427,5.661,27.87,7.583c3.623,0.773,6.762,1.497,9.274,2.222  c1.753,3.314,3.13,6.815,4.106,10.433c2.753,8.598,5.168,16.036,11.109,16.857h1.111c5.941,0,10.868-6.424,16.085-13.138  c2.188-3.367,4.782-6.448,7.728-9.177c17.77-0.565,35.381-3.526,52.359-8.791l1.691-0.435  C369.848,369.123,339.176,396.075,259.478,415.831z M391.245,316.715c-0.932,5.811-2.352,11.53-4.251,17.099l-0.58-1.256  l-8.115,2.174c-16.167,4.975-32.937,7.738-49.848,8.211c-5.748,0-10.337,5.941-15.65,12.8c-2.314,3.212-4.878,6.236-7.68,9.032  c-1.493-3.115-2.734-6.347-3.719-9.66c-2.705-8.453-4.83-15.118-10.095-16.664c-2.946-0.869-6.424-1.642-10.433-2.512  c-9.066-1.84-18.002-4.26-26.759-7.245c-19.572-7.144-40.322-10.501-61.15-9.902c-6.472,0-8.791,7.873-11.641,17.727  c-0.725,2.56-1.835,6.328-2.85,8.743c-2.029-2.888-3.903-5.888-5.603-8.984c-4.83-8.501-8.791-15.215-14.78-14.491  c-11.448,1.884-26.035,4.347-33.811,6.231c-1.55-5.893-2.729-11.877-3.526-17.92c-0.642-4.854,2.454-9.419,7.197-10.626  c22.398-6.173,45.5-9.419,68.734-9.66c20.567-0.546,40.989,3.618,59.701,12.172c18.741,8.496,39.182,12.592,59.749,11.979  c21.185-0.256,42.269-3.043,62.792-8.308c0.792-0.193,1.604-0.295,2.415-0.29c5.333-0.217,9.829,3.932,10.047,9.259  C391.414,315.324,391.366,316.025,391.245,316.715z" data-original="#171C1F" class="active-path" data-old_color="#9FA7AC"/><g style="opacity:0.1;">
	<path d="M188.377,188.377c0.227,10.882-8.414,19.886-19.297,20.108c-10.882,0.222-19.886-8.414-20.108-19.297   c-0.227-10.882,8.414-19.886,19.297-20.108c1.319-0.029,2.632,0.077,3.927,0.314l-9.274-9.274   c-15.645,3.376-25.595,18.794-22.219,34.439s18.794,25.595,34.439,22.219c11.129-2.401,19.823-11.09,22.219-22.219l-9.274-9.274   C188.266,186.305,188.363,187.339,188.377,188.377z M349.078,160.072l-9.274,9.274c10.709-1.956,20.973,5.134,22.929,15.843   c1.956,10.709-5.135,20.973-15.843,22.929c-10.709,1.956-20.973-5.134-22.929-15.843c-0.43-2.343-0.43-4.743,0-7.086l-9.274,9.274   c3.376,15.645,18.794,25.595,34.439,22.219c15.645-3.376,25.595-18.794,22.219-34.439c-2.401-11.129-11.09-19.823-22.219-22.219   L349.078,160.072z" data-original="#000000" class="" style="fill:#000000" data-old_color="#ffffff"/>
</g><g style="opacity:0.1;">
	<path d="M492.679,251.17c0,130.715-105.965,236.679-236.679,236.679S19.321,381.884,19.321,251.17c0,1.594,0,3.188,0,4.83   c0,130.715,105.965,236.679,236.679,236.679S492.679,386.715,492.679,256C492.679,254.358,492.679,252.764,492.679,251.17z    M169.057,265.66c26.397-0.043,49.432-17.915,56.03-43.472l-5.555-5.555c-15.751,27.87-51.108,37.695-78.978,21.944   c-15.123-8.545-25.614-23.426-28.59-40.54c-5.521,31.343,15.408,61.227,46.751,66.748C162.13,265.39,165.589,265.68,169.057,265.66   z M342.943,265.66c31.826,0.188,57.779-25.455,57.967-57.281c0.019-3.468-0.27-6.926-0.874-10.341   c-5.439,31.546-35.42,52.712-66.966,47.273c-17.137-2.956-32.039-13.447-40.603-28.58l-5.555,5.458   C293.511,247.745,316.546,265.617,342.943,265.66z M182.436,336.326c-0.725,2.608-1.835,6.376-2.802,8.839   c-2.082-2.922-3.999-5.951-5.748-9.081c-4.83-8.453-8.163-14.491-13.573-14.491h-1.063c-12.462,2.077-28.981,4.83-35.55,6.907   l-3.526,1.014v0.58c2.401,9.177,5.502,18.152,9.274,26.856c5.941-1.401,16.326-3.333,30.14-5.651   c2.241,3.053,4.231,6.284,5.941,9.66c4.83,8.694,8.743,15.553,14.491,15.553h0.628c5.845-0.58,7.97-8.018,10.675-17.437   c1.019-3.879,2.376-7.661,4.057-11.303c19.041-0.372,37.98,2.908,55.789,9.66c8.999,3.178,18.195,5.762,27.532,7.728   c3.574,0.821,6.666,1.497,9.177,2.222c1.734,3.367,3.096,6.917,4.057,10.578c2.705,8.743,5.072,16.278,11.013,17.099h1.063   c5.941,0,10.578-6.183,15.94-13.331c2.232-3.371,4.879-6.458,7.873-9.177c14.713-0.295,29.329-2.502,43.472-6.569   c8.83-9.177,15.616-20.127,19.9-32.121v-3.188l-5.989,1.546l-7.97,2.174c-15.993,5.134-32.623,8.013-49.413,8.549   c-5.7,0-10.24,6.038-15.457,12.993c-2.275,3.256-4.811,6.328-7.583,9.177c-1.483-3.231-2.71-6.574-3.671-9.999   c-2.657-8.549-4.83-15.312-9.998-16.906c-2.898-0.869-6.328-1.642-10.288-2.56c-8.955-1.816-17.78-4.222-26.421-7.197   c-19.316-7.245-39.854-10.655-60.474-10.047C187.556,318.454,185.286,326.376,182.436,336.326z" data-original="#000000" class="" style="fill:#000000" data-old_color="#ffffff"/>
</g><path style="fill:#B0B4B7" d="M256,0C114.616,0,0,114.616,0,256s114.616,256,256,256s256-114.616,256-256S397.384,0,256,0z   M256,492.679C125.285,492.679,19.321,386.715,19.321,256S125.285,19.321,256,19.321S492.679,125.285,492.679,256  S386.715,492.679,256,492.679z" data-original="#171C1F" class="active-path" data-old_color="#9FA7AC"/></g> </svg>
