<?xml version="1.0"?>
<svg xmlns="http://www.w3.org/2000/svg" viewBox="0 0 512 512" width="512px" height="512px" class=""><g><path d="m256 512c-140.609375 0-256-115.390625-256-256s115.390625-256 256-256 256 115.390625 256 256-115.390625 256-256 256zm0 0" fill="#deecf1" data-original="#DEECF1" class=""/><path d="m512 256c0-140.609375-115.390625-256-256-256v512c140.609375 0 256-115.390625 256-256zm0 0" fill="#c6e2e7" data-original="#C6E2E7" class=""/><path d="m127.972656 279.027344c-14.164062-14.164063-21.972656-32.988282-21.972656-53.027344s7.808594-38.863281 21.972656-53.027344c13.402344-13.417968 32.726563-21.109375 53.027344-21.109375s39.625 7.691407 53.011719 21.097657l21.988281 21.953124 21.972656-21.925781c13.402344-13.433593 32.726563-21.125 53.027344-21.125s39.625 7.691407 53.011719 21.09375c14.179687 14.179688 21.988281 33.003907 21.988281 53.042969s-7.808594 38.863281-21.972656 53.027344l-128.027344 128.042968zm0 0" fill="#e30000" data-original="#E30000" class="active-path" style="fill:#FDFBFB" data-old_color="#FCF7F7"/><path d="m384.027344 279.027344c14.164062-14.164063 21.972656-32.988282 21.972656-53.027344s-7.808594-38.863281-21.988281-53.042969c-13.386719-13.402343-32.707031-21.09375-53.011719-21.09375s-39.625 7.691407-53.027344 21.125l-21.972656 21.925781v212.15625zm0 0" fill="#d20000" data-original="#D20000" class="" style="fill:#FCFCFC" data-old_color="#F9F9F9"/></g> </svg>
