<svg height="512pt" viewBox="0 0 512 512" width="512pt" xmlns="http://www.w3.org/2000/svg"><path d="m512 256c0 140.699219-115.300781 256-256 256s-256-115.300781-256-256 115.300781-256 256-256 256 115.300781 256 256zm0 0" fill="#deecf1"/><path d="m512 256c0 140.699219-115.300781 256-256 256v-512c140.699219 0 256 115.300781 256 256zm0 0" fill="#c5d3dd"/><path d="m331.601562 121s-.300781 0-.601562 0c-38.402344 0-61.800781 24.300781-75 45.898438-13.199219-21.597657-36.300781-46.5-75.601562-45.898438-47.699219.300781-86.996094 41.699219-89.398438 94.199219-2.699219 63.300781 44.699219 105 116.101562 167.699219 38.097657 33.300781 38.699219 34.199218 48.898438 43.199218 6.597656-6 12.898438-11.699218 48.898438-43.199218 71.402343-62.699219 118.800781-104.398438 116.101562-167.699219-2.402344-52.5-41.699219-93.898438-89.398438-94.199219zm0 0" fill="#ff641a"/><path d="m421 215.199219c2.699219 63.300781-44.699219 105-116.101562 167.699219-36 31.5-42.300782 37.199218-48.898438 43.199218v-259.199218c13.199219-21.597657 36.597656-45.898438 75-45.898438h.601562c47.699219.300781 86.996094 41.699219 89.398438 94.199219zm0 0" fill="#f03800"/></svg>