<?xml version="1.0" encoding="iso-8859-1"?>
<!-- Generator: Adobe Illustrator 19.0.0, SVG Export Plug-In . SVG Version: 6.00 Build 0)  -->
<svg version="1.1" id="Capa_1" xmlns="http://www.w3.org/2000/svg" xmlns:xlink="http://www.w3.org/1999/xlink" x="0px" y="0px"
	 viewBox="0 0 512 512" style="enable-background:new 0 0 512 512;" xml:space="preserve">
<g>
	<g>
		<path d="M473.399,391.225C497.855,351.985,512,305.648,512,255.99C512,114.596,397.394,0,256,0S0,114.596,0,255.99
			C0,397.425,114.606,512,256,512c49.659,0,96.006-14.15,135.254-38.619l112.206,30.059L473.399,391.225z M256,119.388
			c17.746,0,32.143,14.387,32.143,32.143c0,17.746-14.387,32.143-32.143,32.143s-32.143-14.387-32.143-32.143
			S238.254,119.388,256,119.388z M312.248,392.622H199.752v-48.22h24.105v-96.43h-24.105v-48.21h88.392v48.21v96.43h24.105V392.622z
			"/>
	</g>
</g>
<g>
</g>
<g>
</g>
<g>
</g>
<g>
</g>
<g>
</g>
<g>
</g>
<g>
</g>
<g>
</g>
<g>
</g>
<g>
</g>
<g>
</g>
<g>
</g>
<g>
</g>
<g>
</g>
<g>
</g>
</svg>
