<?xml version="1.0"?>
<svg xmlns="http://www.w3.org/2000/svg" xmlns:xlink="http://www.w3.org/1999/xlink" version="1.1" id="Capa_1" x="0px" y="0px" viewBox="0 0 512 512" style="enable-background:new 0 0 512 512;" xml:space="preserve" width="512px" height="512px" class=""><g><circle style="fill:#FFC868" cx="256" cy="256" r="246.34" data-original="#FFC868" class="" data-old_color="#4DB652"/><g style="opacity:0.25;">
	<path style="fill:#171C1F" d="M392.018,294.642c-2.787-3.115-6.786-4.878-10.965-4.83H130.85   c-4.178-0.048-8.178,1.715-10.965,4.83c-2.739,3.144-3.985,7.318-3.429,11.448c3.193,24.214,13.153,47.032,28.74,65.835   c24.731,28.981,61.971,43.472,110.756,43.472s86.074-14.491,110.756-43.472c15.563-18.76,25.523-41.53,28.74-65.691   C396.047,302.056,394.795,297.82,392.018,294.642z" data-original="#171C1F" class=""/>
</g><path style="fill:#FFFFFF" d="M169.057,241.509c29.343,0,53.132-23.789,53.132-53.132s-23.789-53.132-53.132-53.132  s-53.132,23.789-53.132,53.132S139.713,241.509,169.057,241.509z M342.943,241.509c29.343,0,53.132-23.789,53.132-53.132  s-23.789-53.132-53.132-53.132s-53.132,23.789-53.132,53.132S313.6,241.509,342.943,241.509z M381.585,289.811h-251.17  c-4.197-0.063-8.216,1.7-11.013,4.83c-2.797,3.173-4.067,7.405-3.478,11.592c0.995,7.525,2.608,14.959,4.83,22.219h270.104  c2.222-7.26,3.835-14.693,4.83-22.219c0.652-4.149-0.526-8.38-3.236-11.592C389.69,291.55,385.734,289.792,381.585,289.811z" data-original="#FFFFFF" class=""/><path style="fill:#70CBF6" d="M342.943,159.396c-16.007,0-28.981,12.974-28.981,28.981s12.974,28.981,28.981,28.981  s28.981-12.974,28.981-28.981S358.951,159.396,342.943,159.396z M333.283,188.377c-5.337,0-9.66-4.323-9.66-9.66  s4.323-9.66,9.66-9.66s9.66,4.323,9.66,9.66S338.62,188.377,333.283,188.377z M169.057,159.396  c-16.007,0-28.981,12.974-28.981,28.981s12.974,28.981,28.981,28.981s28.981-12.974,28.981-28.981S185.064,159.396,169.057,159.396z   M159.396,188.377c-5.337,0-9.66-4.323-9.66-9.66s4.323-9.66,9.66-9.66s9.66,4.323,9.66,9.66S164.734,188.377,159.396,188.377z" data-original="#70CBF6"/><path style="fill:#FF7575" d="M277.736,371.925c-8.656-0.005-16.77,4.212-21.736,11.303c-8.289-12.109-24.818-15.205-36.927-6.917  c-11.114,7.608-14.78,22.325-8.525,34.256c14.486,3.285,29.295,4.907,44.148,4.83c0.435-0.531,0.918-1.063,1.304-1.642  c0.386,0.58,0.869,1.111,1.304,1.642c14.853,0.077,29.662-1.541,44.148-4.83c6.695-13.027,1.565-29.01-11.462-35.71  C286.203,372.91,281.996,371.905,277.736,371.925z" data-original="#FF7575"/><path style="fill:#171C1F" d="M169.057,246.34c32.01,0,57.962-25.953,57.962-57.962s-25.953-57.962-57.962-57.962  s-57.962,25.953-57.962,57.962S137.047,246.34,169.057,246.34z M169.057,140.075c26.677,0,48.302,21.625,48.302,48.302  s-21.625,48.302-48.302,48.302s-48.302-21.625-48.302-48.302S142.379,140.075,169.057,140.075z M342.943,246.34  c32.01,0,57.962-25.953,57.962-57.962s-25.953-57.962-57.962-57.962s-57.962,25.953-57.962,57.962S310.934,246.34,342.943,246.34z   M342.943,140.075c26.677,0,48.302,21.625,48.302,48.302s-21.625,48.302-48.302,48.302c-26.677,0-48.302-21.625-48.302-48.302  S316.266,140.075,342.943,140.075z M381.585,284.981h-251.17c-5.555,0.019-10.839,2.43-14.491,6.617  c-3.743,4.149-5.502,9.718-4.83,15.263c3.338,25.136,13.723,48.814,29.947,68.299c25.89,29.899,64.531,45.066,114.958,45.066  s89.069-15.167,114.814-45.066c16.278-19.47,26.711-43.148,30.092-68.299c0.671-5.545-1.087-11.114-4.83-15.263  C392.424,287.411,387.14,285,381.585,284.981z M297.974,406.219c-13.79,2.99-27.865,4.444-41.974,4.347  c-14.094,0.097-28.15-1.362-41.926-4.347c-1-2.454-1.526-5.077-1.546-7.728c0.048-11.979,9.796-21.649,21.774-21.601  c10.979,0.043,20.19,8.284,21.456,19.186h0.483c1.381-11.897,12.148-20.422,24.045-19.041c10.902,1.266,19.142,10.481,19.186,21.456  C299.467,401.138,298.96,403.76,297.974,406.219z M308.697,403.466c0.271-1.594,0.42-3.212,0.435-4.83  c0.034-17.311-13.974-31.377-31.285-31.411c-8.149-0.014-15.988,3.144-21.847,8.805c-12.447-12.032-32.295-11.694-44.327,0.758  c-5.627,5.825-8.786,13.602-8.805,21.702c0.014,1.618,0.159,3.236,0.435,4.83c-35.062-9.651-63.222-35.787-75.448-70.038h256.29  C371.958,367.587,343.794,393.786,308.697,403.466z M391.245,305.558c-0.898,6.105-2.222,12.143-3.961,18.065H124.667  c-1.724-5.922-3.029-11.96-3.912-18.065c-0.696-5.289,3.033-10.139,8.322-10.834c0.444-0.058,0.889-0.087,1.338-0.082h251.17  c5.337-0.043,9.699,4.241,9.742,9.578C391.332,304.669,391.303,305.113,391.245,305.558z" data-original="#171C1F" class=""/><g style="opacity:0.1;">
	<path d="M169.057,159.396c-16.007,0-28.981,12.974-28.981,28.981s12.974,28.981,28.981,28.981s28.981-12.974,28.981-28.981   S185.064,159.396,169.057,159.396z M169.057,207.698c-10.67,0-19.321-8.651-19.321-19.321c0-10.67,8.651-19.321,19.321-19.321   c10.67,0,19.321,8.651,19.321,19.321C188.377,199.047,179.726,207.698,169.057,207.698z M342.943,159.396   c-16.007,0-28.981,12.974-28.981,28.981s12.974,28.981,28.981,28.981s28.981-12.974,28.981-28.981S358.951,159.396,342.943,159.396   z M342.943,207.698c-10.67,0-19.321-8.651-19.321-19.321c0-10.67,8.651-19.321,19.321-19.321c10.67,0,19.321,8.651,19.321,19.321   C362.264,199.047,353.613,207.698,342.943,207.698z" data-original="#000000" class="active-path" style="fill:#000000"/>
</g><g style="opacity:0.1;">
	<path d="M169.057,265.66c31.826,0.188,57.779-25.455,57.967-57.281c0.019-3.468-0.27-6.926-0.874-10.341   c-5.526,31.531-35.565,52.615-67.096,47.09c-24.049-4.212-42.878-23.045-47.09-47.09c-5.521,31.343,15.408,61.227,46.751,66.748   C162.13,265.39,165.589,265.68,169.057,265.66z M342.943,265.66c31.826,0.188,57.779-25.455,57.967-57.281   c0.019-3.468-0.27-6.926-0.874-10.341c-5.526,31.531-35.565,52.615-67.096,47.09c-24.05-4.212-42.878-23.045-47.09-47.09   c-5.521,31.343,15.408,61.227,46.751,66.748C336.017,265.39,339.475,265.68,342.943,265.66z M492.679,251.17   c0,130.715-105.965,236.679-236.679,236.679S19.321,381.884,19.321,251.17c0,1.594,0,3.188,0,4.83   c0,130.715,105.965,236.679,236.679,236.679S492.679,386.715,492.679,256C492.679,254.358,492.679,252.764,492.679,251.17z    M131.768,352.604h248.368c3.425-6.192,6.332-12.65,8.694-19.321H123.17C125.498,339.949,128.377,346.411,131.768,352.604z" data-original="#000000" class="active-path" style="fill:#000000"/>
</g><path style="fill:#171C1F" d="M256,0C114.616,0,0,114.616,0,256s114.616,256,256,256s256-114.616,256-256S397.384,0,256,0z   M256,492.679C125.285,492.679,19.321,386.715,19.321,256S125.285,19.321,256,19.321S492.679,125.285,492.679,256  S386.715,492.679,256,492.679z" data-original="#171C1F" class=""/></g> </svg>
