<svg height="512pt" viewBox="-66 0 512 512" width="512pt" xmlns="http://www.w3.org/2000/svg"><path d="m110 310c-5.519531 0-10 4.480469-10 10s4.480469 10 10 10 10-4.480469 10-10-4.480469-10-10-10zm0 0"/><path d="m190 60c-71.683594 0-130 58.316406-130 130 0 71.175781 57.65625 130 130 130 72.378906 0 130-58.859375 130-130 0-71.683594-58.316406-130-130-130zm-60 222.207031v-2.207031c0-33.085938 26.914062-60 60-60s60 26.914062 60 60v2.207031c-17.851562 11.652344-38.488281 17.792969-60 17.792969s-42.148438-6.140625-60-17.792969zm30-112.207031c0-16.542969 13.457031-30 30-30s30 13.457031 30 30-13.457031 30-30 30-30-13.457031-30-30zm108.863281 96.652344c-4.460937-26.441406-21.929687-48.507813-45.585937-59.375 10.253906-9.164063 16.722656-22.476563 16.722656-37.277344 0-27.570312-22.429688-50-50-50s-50 22.429688-50 50c0 14.800781 6.46875 28.113281 16.722656 37.277344-23.652344 10.867187-41.125 32.933594-45.585937 59.375-19.75-20.371094-31.136719-47.878906-31.136719-76.652344 0-60.652344 49.347656-110 110-110s110 49.347656 110 110c0 28.773438-11.386719 56.28125-31.136719 76.652344zm0 0"/><path d="m380 190c0-104.765625-85.234375-190-190-190s-190 85.234375-190 190c0 41.292969 13.070312 80.582031 37.800781 113.628906l132.90625 188.371094h-80.707031c-5.523438 0-10 4.476562-10 10s4.476562 10 10 10h200c5.523438 0 10-4.476562 10-10s-4.476562-10-10-10h-80.707031l132.90625-188.371094c24.730469-33.046875 37.800781-72.335937 37.800781-113.628906zm-54.0625 101.984375-135.9375 192.667969-135.9375-192.667969c-.058594-.078125-.113281-.15625-.171875-.230469-22.171875-29.582031-33.890625-64.769531-33.890625-101.753906 0-93.738281 76.261719-170 170-170s170 76.261719 170 170c0 36.984375-11.71875 72.171875-33.890625 101.753906-.058594.074219-.113281.152344-.171875.230469zm0 0"/><path d="m142.359375 343.113281c-2.996094-4.640625-9.183594-5.96875-13.824219-2.972656s-5.972656 9.183594-2.976562 13.824219l56.039062 86.761718c2.996094 4.636719 9.1875 5.96875 13.828125 2.972657 4.640625-2.996094 5.96875-9.1875 2.972657-13.824219zm0 0"/></svg>