<?xml version="1.0"?>
<svg xmlns="http://www.w3.org/2000/svg" height="512px" viewBox="0 -71 511.99991 511" width="512px" class=""><g><path d="m394.847656 111.714844h-188.710937c-4.148438 0-7.507813 3.359375-7.507813 7.507812 0 4.148438 3.359375 7.511719 7.507813 7.511719h188.707031c4.148438 0 7.511719-3.363281 7.511719-7.511719 0-4.148437-3.363281-7.507812-7.507813-7.507812zm0 0" data-original="#000000" class="active-path" data-old_color="#000000" fill="#FFFFFF"/><path d="m394.847656 151.199219h-188.710937c-4.148438 0-7.507813 3.363281-7.507813 7.511719 0 4.148437 3.359375 7.507812 7.507813 7.507812h188.707031c4.148438 0 7.511719-3.359375 7.511719-7.507812 0-4.148438-3.363281-7.511719-7.507813-7.511719zm0 0" data-original="#000000" class="active-path" data-old_color="#000000" fill="#FFFFFF"/><path d="m394.847656 190.683594h-188.710937c-4.148438 0-7.507813 3.363281-7.507813 7.511718 0 4.148438 3.359375 7.511719 7.507813 7.511719h188.707031c4.148438 0 7.511719-3.363281 7.511719-7.511719 0-4.148437-3.363281-7.511718-7.507813-7.511718zm0 0" data-original="#000000" class="active-path" data-old_color="#000000" fill="#FFFFFF"/><path d="m394.847656 230.171875h-188.710937c-4.148438 0-7.507813 3.363281-7.507813 7.511719 0 4.148437 3.359375 7.507812 7.507813 7.507812h188.707031c4.148438 0 7.511719-3.359375 7.511719-7.507812 0-4.148438-3.363281-7.511719-7.507813-7.511719zm0 0" data-original="#000000" class="active-path" data-old_color="#000000" fill="#FFFFFF"/><path d="m511.964844 160.070312c-8.089844-84.089843-89.707032-152.863281-194.808594-159.554687-4.148438-.261719-7.710938 2.878906-7.972656 7.015625-.261719 4.140625 2.878906 7.710938 7.019531 7.972656 95.65625 6.089844 173.390625 68.859375 180.808594 146.003906.375 3.882813 3.644531 6.792969 7.46875 6.792969.242187 0 .484375-.015625.726562-.035156 4.128907-.398437 7.15625-4.066406 6.757813-8.195313zm0 0" data-original="#000000" class="active-path" data-old_color="#000000" fill="#FFFFFF"/><path d="m441.367188 304.054688c38.089843-27.742188 62.738281-65.75 69.40625-107.019532.660156-4.097656-2.121094-7.953125-6.214844-8.613281-4.097656-.660156-7.949219 2.125-8.613282 6.214844-6.03125 37.332031-28.554687 71.878906-63.421874 97.277343-7.042969 5.128907-9.3125 14.855469-5.277344 22.625l19.628906 37.835938c.792969 1.523438-.753906 3.144531-2.316406 2.410156l-64.859375-30.425781c-3.789063-1.777344-8.109375-2.105469-12.171875-.917969-70.515625 20.59375-147.621094 7.046875-201.671875-33.472656-124.617188-93.425781-53.035157-261.683594 116.332031-274.277344 4.136719-.304687 7.238281-3.910156 6.933594-8.046875-.308594-4.136719-3.925782-7.242187-8.046875-6.929687-52.226563 3.882812-100.660157 23.453125-136.375 55.113281-15.394531 13.644531-27.84375 29.039063-37.097657 45.59375-114.519531 31.285156-145.425781 153.425781-54.609374 219.929687l-14.386719 27.730469c-6.304688 12.148438 6.402343 25.347657 18.777343 19.546875l47.390626-22.230468c41.875 12.203124 87.992187 9.304687 127.011718-7.882813 45.429688 12.792969 94.605469 12.589844 139.953125-.652344.546875-.160156 1.105469-.125 1.578125.09375l64.863282 30.425781c6.628906 3.109376 14.175781 1.699219 19.234374-3.566406 5.066407-5.273437 6.160157-12.871094 2.796876-19.359375l-19.636719-37.835937c-.640625-1.234375-.296875-2.769532.792969-3.566406zm-332.488282 27.894531c-3.445312-1.007813-7.117187-.730469-10.335937.777343l-45.640625 21.410157 13.421875-25.867188c3.410156-6.566406 1.488281-14.789062-4.46875-19.125-77.960938-56.789062-54.082031-156.296875 36.90625-189.203125-.257813.644532-.503907 1.292969-.75 1.941406-31.476563 82.167969 15.046875 171.710938 111.09375 209.140626-31.9375 10.035156-67.484375 10.488281-100.226563.925781zm0 0" data-original="#000000" class="active-path" data-old_color="#000000" fill="#FFFFFF"/></g> </svg>
